<?xml version="1.0" encoding="utf-8"?>
<!-- Generator: Adobe Illustrator 16.0.0, SVG Export Plug-In . SVG Version: 6.00 Build 0)  -->
<!DOCTYPE svg PUBLIC "-//W3C//DTD SVG 1.1//EN" "http://www.w3.org/Graphics/SVG/1.1/DTD/svg11.dtd">
<svg version="1.1" id="Layer_1" xmlns="http://www.w3.org/2000/svg" xmlns:xlink="http://www.w3.org/1999/xlink" x="0px" y="0px"
	 width="100px" height="100px" viewBox="0 0 100 100" enable-background="new 0 0 100 100" xml:space="preserve">
<path fill="#67A9E2" d="M36.353,83.785c-20.098,0-36.393-16.293-36.393-36.393C-0.04,27.292,16.255,11,36.353,11
	c13.659,0,25.544,7.535,31.769,18.661c1.511-0.258,3.044-0.467,4.625-0.467c15.075,0,27.294,12.223,27.294,27.298
	c0,15.07-12.219,27.293-27.294,27.293C66.433,83.785,43.628,83.785,36.353,83.785z M72.746,74.686
	c10.051,0,18.199-8.148,18.199-18.193c0-10.05-8.148-18.199-18.199-18.199c-3.641,0-7.011,1.095-9.858,2.937
	C60.089,29.139,49.3,20.097,36.353,20.097c-15.073,0-27.293,12.221-27.293,27.296S21.28,74.686,36.353,74.686
	C44.581,74.686,65.878,74.686,72.746,74.686z"/>
</svg>
