<?xml version="1.0" encoding="utf-8"?>
<!-- Generator: Adobe Illustrator 16.0.0, SVG Export Plug-In . SVG Version: 6.00 Build 0)  -->
<!DOCTYPE svg PUBLIC "-//W3C//DTD SVG 1.1//EN" "http://www.w3.org/Graphics/SVG/1.1/DTD/svg11.dtd">
<svg version="1.1" id="Layer_1" xmlns="http://www.w3.org/2000/svg" xmlns:xlink="http://www.w3.org/1999/xlink" x="0px" y="0px"
	 width="100px" height="100px" viewBox="0 0 100 100" enable-background="new 0 0 100 100" xml:space="preserve">
<path fill="#67A9E2" d="M81.844,75.711v-9.966C87.279,62.594,90.94,56.73,90.94,50c0-10.047-8.146-18.195-18.196-18.195
	c-3.641,0-7.013,1.092-9.856,2.937c-2.799-12.095-13.59-21.135-26.535-21.135c-15.075,0-27.293,12.222-27.293,27.297
	c0,8.074,3.527,15.308,9.099,20.302v11.183C7.292,66.09-0.04,54.367-0.04,40.903c0-20.1,16.294-36.395,36.393-36.395
	c13.657,0,25.545,7.534,31.767,18.663c1.511-0.258,3.042-0.467,4.625-0.467c15.075,0,27.296,12.223,27.296,27.295
	C100.04,61.88,92.434,71.957,81.844,75.711z M31.803,59.099c2.514,0,4.55,2.04,4.55,4.55c0,2.515-2.036,4.55-4.55,4.55
	c-2.512,0-4.548-2.035-4.548-4.55C27.255,61.139,29.291,59.099,31.803,59.099z M31.803,77.297c2.514,0,4.55,2.037,4.55,4.55
	s-2.036,4.545-4.55,4.545c-2.512,0-4.548-2.034-4.548-4.545C27.255,79.332,29.291,77.297,31.803,77.297z M50.001,68.198
	c2.513,0,4.55,2.037,4.55,4.55c0,2.512-2.037,4.549-4.55,4.549c-2.514,0-4.55-2.037-4.55-4.549
	C45.451,70.233,47.487,68.198,50.001,68.198z M50.001,86.392c2.513,0,4.55,2.04,4.55,4.55c0,2.515-2.037,4.55-4.55,4.55
	c-2.514,0-4.55-2.035-4.55-4.55C45.451,88.432,47.487,86.392,50.001,86.392z M68.195,59.099c2.512,0,4.549,2.04,4.549,4.55
	c0,2.515-2.037,4.55-4.549,4.55c-2.513,0-4.548-2.035-4.548-4.55C63.647,61.139,65.687,59.099,68.195,59.099z M68.195,77.297
	c2.512,0,4.549,2.037,4.549,4.55s-2.037,4.545-4.549,4.545c-2.513,0-4.548-2.034-4.548-4.545
	C63.647,79.332,65.687,77.297,68.195,77.297z"/>
</svg>
