<?xml version="1.0" encoding="utf-8"?>
<!-- Generator: Adobe Illustrator 16.0.0, SVG Export Plug-In . SVG Version: 6.00 Build 0)  -->
<!DOCTYPE svg PUBLIC "-//W3C//DTD SVG 1.1//EN" "http://www.w3.org/Graphics/SVG/1.1/DTD/svg11.dtd">
<svg version="1.1" id="Layer_1" xmlns="http://www.w3.org/2000/svg" xmlns:xlink="http://www.w3.org/1999/xlink" x="0px" y="0px"
	 width="100px" height="100px" viewBox="0 0 100 100" enable-background="new 0 0 100 100" xml:space="preserve">
<path fill="#67A9E2" d="M81.847,71.157v-9.966c5.434-3.147,9.099-9.01,9.099-15.741c0-10.049-8.148-18.198-18.198-18.198
	c-3.641,0-7.011,1.092-9.859,2.937C60.089,18.094,49.3,9.056,36.354,9.056C21.28,9.056,9.06,21.277,9.06,36.35
	c0,8.074,3.528,15.305,9.1,20.301v11.184C7.292,61.538-0.04,49.813-0.04,36.35c0-20.098,16.295-36.391,36.394-36.391
	c13.658,0,25.544,7.532,31.769,18.661c1.511-0.257,3.043-0.466,4.625-0.466c15.075,0,27.293,12.221,27.293,27.297
	C100.04,57.331,92.443,67.407,81.847,71.157z M31.806,45.45c2.512,0,4.548,2.039,4.548,4.55v36.393c0,2.515-2.036,4.55-4.548,4.55
	s-4.55-2.035-4.55-4.55V50C27.256,47.489,29.294,45.45,31.806,45.45z M50.002,54.55c2.512,0,4.551,2.037,4.551,4.549v36.394
	c0,2.512-2.039,4.549-4.551,4.549s-4.55-2.037-4.55-4.549V59.099C45.452,56.584,47.49,54.55,50.002,54.55z M68.197,45.45
	c2.513,0,4.55,2.039,4.55,4.55v36.393c0,2.515-2.037,4.55-4.55,4.55c-2.51,0-4.55-2.035-4.55-4.55V50
	C63.647,47.489,65.688,45.45,68.197,45.45z"/>
</svg>
