<?xml version="1.0" encoding="utf-8"?>
<!-- Generator: Adobe Illustrator 16.0.0, SVG Export Plug-In . SVG Version: 6.00 Build 0)  -->
<!DOCTYPE svg PUBLIC "-//W3C//DTD SVG 1.1//EN" "http://www.w3.org/Graphics/SVG/1.1/DTD/svg11.dtd">
<svg version="1.1" id="Layer_1" xmlns="http://www.w3.org/2000/svg" xmlns:xlink="http://www.w3.org/1999/xlink" x="0px" y="0px"
	 width="100px" height="100px" viewBox="0 0 100 100" enable-background="new 0 0 100 100" xml:space="preserve">
<path fill="#67A9E2" d="M77.294,79.165v-9.286c7.842-2.026,13.648-9.126,13.648-17.604c0-10.047-8.148-18.195-18.196-18.195
	c-3.641,0-7.016,1.092-9.859,2.937c-2.801-12.095-13.588-21.136-26.533-21.136c-15.076,0-27.296,12.224-27.296,27.299
	c0,10.095,5.499,18.893,13.647,23.611V76.9C9.374,71.498-0.04,58.446-0.04,43.177c0-20.098,16.292-36.395,36.394-36.395
	c13.657,0,25.545,7.534,31.768,18.663c1.511-0.258,3.041-0.467,4.625-0.467c15.073,0,27.294,12.223,27.294,27.292
	C100.04,65.8,90.198,76.992,77.294,79.165z M34.239,65.924c1.259-2.177,4.039-2.919,6.216-1.663l4.995,2.881v-5.767
	c0-2.511,2.038-4.55,4.55-4.55c2.511,0,4.55,2.039,4.55,4.55v5.767l4.994-2.884c2.177-1.253,4.958-0.511,6.211,1.666
	c1.258,2.178,0.511,4.959-1.661,6.214l-4.997,2.886l4.997,2.884c2.172,1.258,2.919,4.039,1.661,6.216
	c-1.255,2.173-4.034,2.917-6.211,1.659l-4.994-2.881v5.767c0,2.515-2.039,4.55-4.55,4.55c-2.512,0-4.55-2.035-4.55-4.55v-5.767
	l-4.993,2.886c-2.177,1.257-4.959,0.513-6.216-1.659c-1.255-2.178-0.511-4.961,1.666-6.216l4.993-2.889l-4.993-2.884
	C33.73,70.883,32.986,68.102,34.239,65.924z M50,79.573c2.511,0,4.55-2.037,4.55-4.55s-2.039-4.55-4.55-4.55
	c-2.512,0-4.55,2.037-4.55,4.55C45.45,77.534,47.488,79.573,50,79.573z"/>
</svg>
