<?xml version="1.0" encoding="utf-8"?>
<!-- Generator: Adobe Illustrator 16.0.0, SVG Export Plug-In . SVG Version: 6.00 Build 0)  -->
<!DOCTYPE svg PUBLIC "-//W3C//DTD SVG 1.1//EN" "http://www.w3.org/Graphics/SVG/1.1/DTD/svg11.dtd">
<svg version="1.1" id="Layer_1" xmlns="http://www.w3.org/2000/svg" xmlns:xlink="http://www.w3.org/1999/xlink" x="0px" y="0px"
	 width="100px" height="100px" viewBox="0 0 100 100" enable-background="new 0 0 100 100" xml:space="preserve">
<g>
	<polygon fill="#FFD218" points="70.468,63.648 54.546,63.648 68.192,40.9 45.449,40.9 34.075,72.748 49.089,72.748 40.899,100.041 
			"/>
	<path fill="#67A9E2" d="M72.744,18.155c-1.581,0-3.114,0.207-4.625,0.467C61.895,7.493,50.01-0.041,36.353-0.041
		C16.254-0.041-0.04,16.256-0.04,36.354c0,16.343,10.771,30.165,25.603,34.764l3.069-8.593c-11.31-3.332-19.573-13.78-19.573-26.168
		c0-15.077,12.22-27.298,27.293-27.298c12.945,0,23.734,9.04,26.535,21.133c2.844-1.843,6.214-2.935,9.856-2.935
		c10.051,0,18.196,8.145,18.196,18.193c0,8.042-5.223,14.857-12.46,17.261l-8.153,10.037c0.938,0,1.777,0,2.415,0
		c15.075,0,27.298-12.223,27.298-27.298C100.04,30.374,87.819,18.155,72.744,18.155z"/>
</g>
</svg>
