<?xml version="1.0" encoding="utf-8"?>
<!-- Generator: Adobe Illustrator 16.0.0, SVG Export Plug-In . SVG Version: 6.00 Build 0)  -->
<!DOCTYPE svg PUBLIC "-//W3C//DTD SVG 1.1//EN" "http://www.w3.org/Graphics/SVG/1.1/DTD/svg11.dtd">
<svg version="1.1" id="Layer_1" xmlns="http://www.w3.org/2000/svg" xmlns:xlink="http://www.w3.org/1999/xlink" x="0px" y="0px"
	 width="100px" height="100px" viewBox="0 0 100 100" enable-background="new 0 0 100 100" xml:space="preserve">
<g>
	<path fill="#BBBBBB" d="M72.747,78.653c-1.18,0-2.928,0-5.043,0l4.779-4.782c1.34-1.342,2.34-2.892,3.006-4.544
		c8.747-1.329,15.454-8.855,15.454-17.97c0-10.049-8.145-18.197-18.196-18.197c-3.523,0-6.784,1.042-9.571,2.778
		c-0.314-1.271-0.814-2.457-1.457-3.558C57.766,22.2,47.931,14.966,36.353,14.966c-15.074,0-27.292,12.219-27.292,27.294
		c0,10.491,5.923,19.586,14.601,24.154c0.443,2.733,1.683,5.356,3.79,7.459l4.481,4.483C13.923,76.175-0.04,60.863-0.04,42.26
		c0-20.099,16.293-36.393,36.393-36.393c13.66,0,25.544,7.535,31.77,18.663c1.511-0.26,3.04-0.467,4.625-0.467
		c15.077,0,27.293,12.221,27.293,27.299C100.04,66.43,87.824,78.653,72.747,78.653z"/>
	<g>
		<path fill="#BABABB" d="M42.205,79.536c-0.223-0.577-0.396-1.227-0.518-1.949c-0.122-0.722-0.183-1.403-0.183-2.049
			c0-1.021,0.1-1.955,0.3-2.8c0.2-0.844,0.499-1.637,0.9-2.383c0.399-0.742,0.899-1.454,1.499-2.131c0.6-0.678,1.3-1.351,2.1-2.016
			c0.844-0.711,1.583-1.371,2.216-1.982s1.171-1.223,1.616-1.834c0.444-0.611,0.777-1.243,1-1.899
			c0.222-0.654,0.332-1.383,0.332-2.182c0-0.688-0.121-1.327-0.366-1.917c-0.244-0.588-0.594-1.094-1.05-1.517
			c-0.456-0.422-1.011-0.755-1.666-0.998c-0.655-0.246-1.383-0.367-2.182-0.367c-1.733,0-3.533,0.36-5.399,1.083
			c-1.866,0.722-3.633,1.816-5.298,3.282v-10.03c1.71-1.022,3.576-1.788,5.599-2.3c2.021-0.511,4.109-0.767,6.265-0.767
			c2.065,0,3.987,0.229,5.765,0.684s3.326,1.172,4.649,2.149c1.32,0.978,2.354,2.228,3.097,3.749
			c0.745,1.521,1.117,3.348,1.117,5.48c0,1.356-0.155,2.583-0.466,3.684c-0.313,1.099-0.768,2.137-1.367,3.115
			c-0.601,0.977-1.344,1.915-2.231,2.816c-0.89,0.9-1.91,1.827-3.065,2.782c-0.778,0.643-1.462,1.243-2.05,1.799
			c-0.59,0.556-1.078,1.104-1.467,1.649s-0.683,1.122-0.883,1.733c-0.199,0.61-0.3,1.305-0.3,2.081c0,0.534,0.071,1.079,0.217,1.633
			c0.145,0.555,0.339,1.023,0.584,1.399H42.205z M47.069,94.133c-1.777,0-3.255-0.534-4.432-1.601
			c-1.178-1.108-1.767-2.421-1.767-3.932c0-1.554,0.589-2.854,1.767-3.897c1.177-1.045,2.654-1.566,4.432-1.566
			c1.755,0,3.211,0.521,4.366,1.566c1.154,1.021,1.732,2.32,1.732,3.897c0,1.601-0.566,2.921-1.7,3.966
			C50.313,93.611,48.847,94.133,47.069,94.133z"/>
	</g>
</g>
</svg>
