<?xml version="1.0" encoding="utf-8"?>
<svg version="1.1" xmlns="http://www.w3.org/2000/svg" viewBox="0 0 96.524 22" fill="#FAFAFA" stroke="#FAFAFA" stroke-width="0.25">
	<path d="M0.25,3.646V0.739h1.152v2.907H0.25z M0.25,21.289V6.496h1.152v14.793H0.25z M21.779,16.671c-0.48,1.046-1.1,1.941-1.857,2.69c-0.758,0.749-1.655,1.334-2.691,1.755c-1.036,0.422-2.207,0.634-3.512,0.634c-1.362,0-2.615-0.264-3.755-0.792c-1.142-0.527-2.121-1.256-2.937-2.187c-0.815-0.932-1.453-2.045-1.914-3.339c-0.46-1.295-0.69-2.71-0.69-4.246c0-1.247,0.177-2.519,0.532-3.814C5.31,6.079,5.872,4.904,6.639,3.847c0.767-1.055,1.765-1.918,2.993-2.589c1.228-0.672,2.715-1.008,4.462-1.008c1.362,0,2.551,0.226,3.569,0.676c1.016,0.451,1.865,1.018,2.547,1.699c0.68,0.681,1.194,1.405,1.539,2.173c0.346,0.768,0.527,1.468,0.547,2.101h-0.576c-0.058-0.749-0.278-1.483-0.662-2.202c-0.384-0.719-0.906-1.367-1.568-1.943c-0.662-0.575-1.449-1.04-2.361-1.396c-0.912-0.354-1.923-0.532-3.036-0.532c-1.689,0-3.114,0.342-4.275,1.022C8.658,2.529,7.723,3.383,7.013,4.409c-0.71,1.027-1.223,2.145-1.54,3.353c-0.316,1.209-0.476,2.351-0.476,3.425c0,1.306,0.192,2.56,0.576,3.77c0.384,1.209,0.95,2.273,1.698,3.194c0.748,0.922,1.665,1.66,2.749,2.217c1.083,0.557,2.317,0.835,3.698,0.835c1.228,0,2.332-0.201,3.31-0.604c0.979-0.404,1.822-0.959,2.533-1.671c0.709-0.709,1.285-1.553,1.726-2.531c0.441-0.979,0.738-2.035,0.893-3.167h0.576C22.584,14.478,22.257,15.625,21.779,16.671z M25.578,0.739v9.412h0.057c0.135-0.576,0.35-1.104,0.648-1.583c0.297-0.48,0.671-0.902,1.124-1.267c0.45-0.364,0.973-0.647,1.568-0.849c0.595-0.201,1.257-0.302,1.986-0.302c0.767,0,1.472,0.116,2.116,0.346c0.642,0.23,1.199,0.572,1.669,1.021c0.47,0.452,0.835,1.008,1.094,1.67c0.259,0.662,0.389,1.424,0.389,2.288v9.814h-0.576v-9.727c0-0.864-0.125-1.598-0.374-2.203c-0.25-0.604-0.59-1.104-1.021-1.496C33.823,7.47,33.325,7.182,32.759,7c-0.566-0.182-1.166-0.273-1.799-0.273c-0.883,0-1.66,0.167-2.332,0.503c-0.671,0.335-1.233,0.788-1.683,1.353c-0.452,0.566-0.792,1.223-1.022,1.972c-0.23,0.748-0.345,1.536-0.345,2.361v8.374h-0.576V0.739H25.578z M39.393,21.289V6.496h0.576v3.656h0.057c0.135-0.557,0.346-1.08,0.634-1.569c0.287-0.489,0.671-0.916,1.149-1.281c0.481-0.364,1.052-0.651,1.715-0.863c0.661-0.211,1.433-0.307,2.315-0.289v0.576c-1.016-0.057-1.894,0.082-2.632,0.417c-0.74,0.336-1.349,0.796-1.829,1.382c-0.479,0.585-0.834,1.262-1.064,2.029s-0.345,1.553-0.345,2.361v8.374H39.393z M46.501,10.972c0.288-0.932,0.715-1.751,1.281-2.461c0.565-0.709,1.262-1.281,2.087-1.713c0.825-0.432,1.785-0.647,2.877-0.647c1.074,0,2.025,0.216,2.851,0.647c0.823,0.432,1.521,1.003,2.087,1.713c0.565,0.71,0.991,1.53,1.281,2.461c0.287,0.931,0.432,1.904,0.432,2.921c0,1.018-0.145,1.989-0.432,2.92c-0.29,0.933-0.716,1.753-1.281,2.462c-0.566,0.711-1.264,1.276-2.087,1.698c-0.825,0.423-1.785,0.634-2.879,0.634c-1.074,0-2.023-0.211-2.849-0.634c-0.825-0.422-1.521-0.987-2.087-1.698c-0.566-0.709-0.993-1.529-1.281-2.462c-0.287-0.931-0.432-1.902-0.432-2.92C46.07,12.876,46.214,11.902,46.501,10.972z M47.034,16.597c0.26,0.864,0.647,1.627,1.167,2.29c0.517,0.661,1.156,1.189,1.914,1.582c0.756,0.395,1.634,0.592,2.632,0.592c0.979,0,1.846-0.197,2.605-0.592c0.758-0.393,1.397-0.921,1.914-1.582c0.518-0.663,0.907-1.426,1.165-2.29c0.259-0.861,0.389-1.765,0.389-2.704c0-0.921-0.13-1.813-0.389-2.677c-0.258-0.863-0.647-1.626-1.165-2.288c-0.517-0.662-1.156-1.194-1.914-1.597c-0.76-0.403-1.626-0.604-2.605-0.604c-0.998,0-1.876,0.202-2.632,0.604c-0.758,0.402-1.397,0.935-1.914,1.597c-0.52,0.662-0.907,1.425-1.167,2.288c-0.259,0.864-0.388,1.756-0.388,2.677C46.646,14.832,46.775,15.735,47.034,16.597z M62.361,6.496v3.656h0.058c0.133-0.576,0.345-1.104,0.632-1.583c0.288-0.48,0.643-0.902,1.065-1.267c0.422-0.364,0.888-0.647,1.395-0.849c0.51-0.201,1.052-0.302,1.629-0.302c1.15-0.038,2.114,0.255,2.891,0.878c0.777,0.625,1.291,1.482,1.541,2.577h0.057c0.286-1.036,0.854-1.872,1.697-2.505c0.844-0.632,1.843-0.95,2.995-0.95c0.901,0,1.648,0.135,2.245,0.404c0.595,0.269,1.072,0.638,1.438,1.108c0.365,0.47,0.624,1.036,0.776,1.698c0.155,0.662,0.229,1.396,0.229,2.203v9.727h-0.574v-9.727c0-0.729-0.063-1.392-0.187-1.987C80.124,8.98,79.9,8.472,79.585,8.05c-0.317-0.422-0.737-0.749-1.266-0.979c-0.527-0.23-1.195-0.345-2-0.345c-0.711,0-1.354,0.14-1.929,0.417c-0.578,0.279-1.066,0.658-1.468,1.137c-0.403,0.48-0.71,1.032-0.922,1.655c-0.212,0.624-0.314,1.28-0.314,1.972v9.382h-0.578v-9.497c0-0.691-0.052-1.343-0.157-1.958c-0.106-0.614-0.303-1.151-0.592-1.611c-0.288-0.461-0.688-0.825-1.21-1.093c-0.515-0.27-1.187-0.403-2.011-0.403c-0.731,0-1.393,0.167-1.987,0.503c-0.594,0.335-1.098,0.788-1.511,1.353c-0.414,0.566-0.73,1.223-0.951,1.972c-0.221,0.748-0.329,1.536-0.329,2.361v8.374h-0.576V6.496H62.361z M84.249,16.785c0.22,0.854,0.561,1.597,1.022,2.23c0.458,0.634,1.056,1.133,1.783,1.498c0.729,0.363,1.622,0.547,2.677,0.547c1.556,0,2.845-0.409,3.871-1.225c1.028-0.814,1.665-2.038,1.915-3.67h0.575c-0.212,1.727-0.894,3.065-2.043,4.016c-1.152,0.949-2.572,1.425-4.262,1.425c-1.148,0.019-2.134-0.162-2.948-0.546c-0.816-0.386-1.484-0.928-2.001-1.627c-0.519-0.701-0.9-1.525-1.15-2.476c-0.25-0.951-0.374-1.972-0.374-3.065c0-1.228,0.181-2.321,0.547-3.281c0.362-0.959,0.844-1.77,1.438-2.432c0.598-0.663,1.287-1.166,2.072-1.511c0.787-0.346,1.592-0.519,2.417-0.519c1.152,0,2.146,0.222,2.981,0.663c0.833,0.442,1.514,1.026,2.043,1.756c0.526,0.729,0.911,1.564,1.15,2.503c0.241,0.941,0.342,1.918,0.304,2.937H83.887C83.907,15.005,84.028,15.931,84.249,16.785z M95.313,10.856c-0.245-0.816-0.618-1.53-1.106-2.145c-0.489-0.614-1.098-1.098-1.826-1.454c-0.731-0.354-1.575-0.532-2.536-0.532c-0.805,0-1.557,0.154-2.255,0.46c-0.701,0.307-1.317,0.753-1.842,1.338c-0.529,0.585-0.959,1.291-1.281,2.116c-0.329,0.825-0.521,1.755-0.579,2.791h11.8C95.687,12.53,95.563,11.672,95.313,10.856z" />
</svg>