<?xml version="1.0" encoding="utf-8"?>
<!-- Generator: Adobe Illustrator 16.0.0, SVG Export Plug-In . SVG Version: 6.00 Build 0)  -->
<!DOCTYPE svg PUBLIC "-//W3C//DTD SVG 1.1//EN" "http://www.w3.org/Graphics/SVG/1.1/DTD/svg11.dtd">
<svg version="1.1" id="Layer_1" xmlns="http://www.w3.org/2000/svg" xmlns:xlink="http://www.w3.org/1999/xlink" x="0px" y="0px"
	 width="100px" height="100px" viewBox="0 0 100 100" enable-background="new 0 0 100 100" xml:space="preserve">
<g>
	<path fill="#67A9E2" d="M49.998,81.846c-2.51,0-4.546,2.035-4.546,4.545v9.1c0,2.515,2.034,4.55,4.546,4.55
		c2.514,0,4.551-2.035,4.551-4.55v-9.1C54.549,83.883,52.512,81.846,49.998,81.846z"/>
	<path fill="#67A9E2" d="M31.804,72.746c-2.514,0-4.55,2.035-4.55,4.55v9.095c0,2.515,2.036,4.55,4.55,4.55
		c2.512,0,4.55-2.035,4.55-4.55v-9.095C36.354,74.783,34.315,72.746,31.804,72.746z"/>
	<path fill="#67A9E2" d="M31.804,45.453c-2.514,0-4.55,2.034-4.55,4.55v9.095c0,2.515,2.036,4.55,4.55,4.55
		c2.512,0,4.55-2.035,4.55-4.55v-9.095C36.354,47.49,34.315,45.453,31.804,45.453z"/>
	<path fill="#67A9E2" d="M49.998,54.548c-2.51,0-4.546,2.039-4.546,4.55v9.099c0,2.513,2.034,4.55,4.546,4.55
		c2.514,0,4.551-2.037,4.551-4.55v-9.099C54.549,56.587,52.512,54.548,49.998,54.548z"/>
	<path fill="#67A9E2" d="M72.747,18.154c-1.586,0-3.114,0.209-4.625,0.467C61.897,7.494,50.012-0.04,36.354-0.04
		C16.253-0.04-0.04,16.252-0.04,36.353c0,13.464,7.328,25.187,18.194,31.484V56.658C12.584,51.66,9.06,44.427,9.06,36.353
		c0-15.075,12.218-27.296,27.294-27.296c12.946,0,23.73,9.041,26.534,21.133c2.844-1.843,6.214-2.937,9.859-2.937
		c10.05,0,18.194,8.148,18.194,18.2c0,6.73-3.666,12.589-9.095,15.741v9.966c10.592-3.75,18.193-13.831,18.193-25.707
		C100.04,30.376,87.822,18.154,72.747,18.154z"/>
	<path fill="#67A9E2" d="M68.197,72.746c-2.515,0-4.55,2.035-4.55,4.55v9.095c0,2.515,2.035,4.55,4.55,4.55
		c2.511,0,4.55-2.035,4.55-4.55v-9.095C72.747,74.783,70.708,72.746,68.197,72.746z"/>
	<path fill="#67A9E2" d="M68.197,45.453c-2.515,0-4.55,2.034-4.55,4.55v9.095c0,2.515,2.035,4.55,4.55,4.55
		c2.511,0,4.55-2.035,4.55-4.55v-9.095C72.747,47.49,70.708,45.453,68.197,45.453z"/>
</g>
</svg>
