<?xml version="1.0" encoding="utf-8"?>
<!-- Generator: Adobe Illustrator 16.0.0, SVG Export Plug-In . SVG Version: 6.00 Build 0)  -->
<!DOCTYPE svg PUBLIC "-//W3C//DTD SVG 1.1//EN" "http://www.w3.org/Graphics/SVG/1.1/DTD/svg11.dtd">
<svg version="1.1" id="Layer_1" xmlns="http://www.w3.org/2000/svg" xmlns:xlink="http://www.w3.org/1999/xlink" x="0px" y="0px"
	 width="100px" height="100px" viewBox="0 0 100 100" enable-background="new 0 0 100 100" xml:space="preserve">
<path fill="#BBBBBB" d="M2.631,65.919c-0.597-1.468-1.076-2.99-1.475-4.55h98.884c0,1.558-0.158,3.068-0.411,4.55H2.631z
	 M18.75,20.43c5.218-2.891,11.214-4.547,17.602-4.547c6.383,0,12.365,1.66,17.578,4.547H18.75z M0.276,47.725
	c0.193-1.552,0.496-3.064,0.88-4.547h91.891c1.255,1.394,2.363,2.913,3.31,4.547H0.276z M2.631,38.628
	c0.639-1.576,1.394-3.091,2.238-4.55h62.969c0.091,0.154,0.193,0.307,0.28,0.467c1.511-0.26,3.045-0.467,4.625-0.467
	c5.575,0,10.758,1.679,15.074,4.55H2.631z M7.969,29.529c1.32-1.646,2.787-3.158,4.368-4.55h48.048
	c1.568,1.388,3.018,2.911,4.328,4.55H7.969z M99.625,56.82H0.276C0.09,55.327-0.04,53.817-0.04,52.274h98.491
	C98.967,53.736,99.364,55.256,99.625,56.82z M98.451,70.469c-0.56,1.591-1.262,3.109-2.095,4.55H7.969
	c-1.148-1.431-2.177-2.955-3.1-4.55H98.451z M12.337,79.567h80.708c-1.546,1.724-3.292,3.264-5.229,4.55H18.75
	C16.438,82.838,14.305,81.296,12.337,79.567z"/>
</svg>
