<?xml version="1.0" encoding="utf-8"?>
<!-- Generator: Adobe Illustrator 16.0.0, SVG Export Plug-In . SVG Version: 6.00 Build 0)  -->
<!DOCTYPE svg PUBLIC "-//W3C//DTD SVG 1.1//EN" "http://www.w3.org/Graphics/SVG/1.1/DTD/svg11.dtd">
<svg version="1.1" id="Layer_1" xmlns="http://www.w3.org/2000/svg" xmlns:xlink="http://www.w3.org/1999/xlink" x="0px" y="0px"
	 width="100px" height="100px" viewBox="0 0 100 100" enable-background="new 0 0 100 100" xml:space="preserve">
<path fill="#FFD218" d="M95.869,54.169h-8.337c-2.303,0-4.17-1.868-4.17-4.169c0-2.302,1.867-4.17,4.17-4.17h8.337
	c2.304,0,4.171,1.868,4.171,4.17C100.04,52.301,98.177,54.169,95.869,54.169z M79.491,26.412c-1.63,1.628-4.274,1.628-5.897,0
	c-1.629-1.628-1.629-4.268,0-5.897l5.897-5.896c1.623-1.629,4.268-1.629,5.897,0c1.622,1.628,1.622,4.269,0,5.896L79.491,26.412z
	 M50.002,75.019c-13.818,0-25.023-11.202-25.023-25.019c0-13.819,11.202-25.021,25.023-25.021c13.819,0,25.019,11.202,25.019,25.021
	C75.021,63.816,63.821,75.019,50.002,75.019z M50.002,33.32c-9.213,0-16.682,7.468-16.682,16.68c0,9.211,7.471,16.68,16.682,16.68
	S66.68,59.211,66.68,50C66.68,40.788,59.215,33.32,50.002,33.32z M50.002,16.64c-2.304,0-4.171-1.869-4.171-4.17V4.13
	c0-2.302,1.867-4.17,4.171-4.17c2.303,0,4.171,1.869,4.171,4.17v8.339C54.173,14.771,52.301,16.64,50.002,16.64z M20.514,26.412
	l-5.896-5.897c-1.629-1.628-1.629-4.268,0-5.896c1.628-1.629,4.269-1.629,5.896,0l5.897,5.896c1.63,1.629,1.63,4.27,0,5.897
	C24.783,28.04,22.143,28.04,20.514,26.412z M16.64,50c0,2.301-1.869,4.169-4.171,4.169H4.128c-2.302,0-4.168-1.868-4.168-4.169
	c0-2.302,1.868-4.17,4.168-4.17h8.341C14.773,45.83,16.64,47.698,16.64,50z M20.514,73.59c1.629-1.628,4.269-1.628,5.897,0
	c1.63,1.627,1.63,4.268,0,5.896l-5.897,5.896c-1.628,1.63-4.268,1.63-5.896,0c-1.629-1.627-1.629-4.268,0-5.896L20.514,73.59z
	 M50.002,83.36c2.303,0,4.171,1.865,4.171,4.168v8.341c0,2.304-1.868,4.171-4.171,4.171c-2.304,0-4.171-1.867-4.171-4.171v-8.341
	C45.831,85.226,47.698,83.36,50.002,83.36z M79.491,73.59l5.897,5.896c1.622,1.628,1.622,4.269,0,5.896
	c-1.63,1.63-4.274,1.63-5.897,0l-5.897-5.896c-1.629-1.629-1.629-4.27,0-5.896C75.217,71.96,77.857,71.96,79.491,73.59z"/>
</svg>
