<?xml version="1.0" encoding="utf-8"?>
<!-- Generator: Adobe Illustrator 16.0.0, SVG Export Plug-In . SVG Version: 6.00 Build 0)  -->
<!DOCTYPE svg PUBLIC "-//W3C//DTD SVG 1.1//EN" "http://www.w3.org/Graphics/SVG/1.1/DTD/svg11.dtd">
<svg version="1.1" id="Layer_1" xmlns="http://www.w3.org/2000/svg" xmlns:xlink="http://www.w3.org/1999/xlink" x="0px" y="0px"
	 width="100px" height="100px" viewBox="0 0 100 100" enable-background="new 0 0 100 100" xml:space="preserve">
<path fill="#BBBBBB" d="M95.274,16.639H4.727c-2.631,0-4.767-2.135-4.767-4.763c0-2.631,2.135-4.766,4.767-4.766h90.548
	c2.632,0,4.766,2.135,4.766,4.766C100.04,14.503,97.906,16.639,95.274,16.639z M9.493,26.172h71.485c2.63,0,4.766,2.135,4.766,4.766
	c0,2.631-2.136,4.765-4.766,4.765H9.493c-2.631,0-4.766-2.135-4.766-4.765C4.727,28.304,6.862,26.172,9.493,26.172z M38.086,45.234
	H90.51c2.631,0,4.765,2.135,4.765,4.765s-2.134,4.766-4.765,4.766H38.086c-2.632,0-4.765-2.137-4.765-4.766
	S35.454,45.234,38.086,45.234z M42.852,83.36h14.297c2.632,0,4.766,2.134,4.766,4.763c0,2.631-2.134,4.768-4.766,4.768H42.852
	c-2.631,0-4.766-2.137-4.766-4.768C38.086,85.494,40.221,83.36,42.852,83.36z M45.235,69.061c0-2.632,2.136-4.765,4.766-4.765H83.36
	c2.63,0,4.767,2.137,4.767,4.765c0,2.633-2.137,4.767-4.767,4.767H50.001C47.371,73.827,45.235,71.693,45.235,69.061z"/>
</svg>
